# xmcd
#
# Track frame offsets: 
#        150
#        22855
#        40040
#        53960
#        69732
#        84902
#        96290
#        115592
#        132960
#        147917
#        163310
#        176272
#        193000
#
# Disc length: 2755 seconds
#
# Revision: 0
# Processed by: cddbd v1.5.2PL0 Copyright (c) Steve Scherf et al.
# Submitted via: ExactAudioCopyFreeDBPlugin 1.0
#
DISCID=a90ac10d
DTITLE=Barbara Lynn - You'll Lose a Good Thing
DYEAR=2006
DGENRE=Rhythm and Blues
TTITLE0=Somebody Please
TTITLE1=You'll Lose a Good Thing (rare live version)
TTITLE2=Darlin Forever
TTITLE3=I'd Rather Go Blind
TTITLE4=What Now
TTITLE5=This is the Thanks I Get
TTITLE6=Tonight is the Night
TTITLE7=To Get You Back Again
TTITLE8=Until Then I'll Suffer
TTITLE9=Let's Stay Together
TTITLE10=I Like the Way You Love Me
TTITLE11=You're Gonna Need Me
TTITLE12=Merry Christmas Baby (bonus track)
EXTD=
EXTT0=
EXTT1=
EXTT2=
EXTT3=
EXTT4=
EXTT5=
EXTT6=
EXTT7=
EXTT8=
EXTT9=
EXTT10=
EXTT11=
EXTT12=
PLAYORDER=
